<svg xmlns="http://www.w3.org/2000/svg" enable-background="new 0 0 15 16" height="16px" viewBox="0 0 15 16" width="15px" fill="#000000">
  <g>
    <path d="M13.3181 0.0225705C13.7199 -0.0778909 14.1271 0.166429 14.2276 0.568275L14.9776 3.56827C15.0781 3.97012 14.8338 4.37732 14.4319 4.47778C14.0301 4.57825 13.6229 4.33393 13.5224 3.93208L13.2462 2.8272C13.0454 3.16887 12.7952 3.57614 12.5061 4.009C11.74 5.15613 10.6384 6.58013 9.40861 7.37909C7.99822 8.2954 5.96969 8.68266 4.39263 8.85591C3.58617 8.94451 2.86211 8.98047 2.33958 8.99436C2.07793 9.00132 1.86579 9.00277 1.71793 9.00245C1.64398 9.00229 1.58603 9.00169 1.54593 9.00111L1.49936 9.00032L1.48653 9.00005L1.4828 8.99996L1.48162 8.99993L1.5 8.25016C1.4809 8.99992 1.48162 8.99993 1.48162 8.99993C1.06754 8.98938 0.739695 8.64513 0.750248 8.23105C0.7608 7.817 1.10499 7.48989 1.51904 7.5004L1.52074 7.50044L1.52946 7.50063L1.5675 7.50127C1.6018 7.50176 1.65361 7.50231 1.72114 7.50245C1.85624 7.50274 2.05393 7.50142 2.29972 7.49489C2.79208 7.4818 3.47338 7.44787 4.22883 7.36488C5.77559 7.19496 7.49705 6.83223 8.5914 6.12124C9.54812 5.49967 10.5089 4.29868 11.2587 3.17594C11.5832 2.69015 11.8563 2.23717 12.0599 1.88329L10.6819 2.22778C10.2801 2.32825 9.87285 2.08393 9.77239 1.68208C9.67193 1.28023 9.91625 0.873032 10.3181 0.772571L13.3181 0.0225705Z" fill="currentColor"/>
    <path d="M12 9.75018C12 9.33597 12.3358 9.00018 12.75 9.00018H14.25C14.6642 9.00018 15 9.33597 15 9.75018V16.5002C15 16.9144 14.6642 17.2502 14.25 17.2502H12.75C12.3358 17.2502 12 16.9144 12 16.5002V9.75018Z" fill="currentColor"/>
    <path d="M6.75 11.2502C6.33579 11.2502 6 11.586 6 12.0002V16.5002C6 16.9144 6.33579 17.2502 6.75 17.2502H8.25C8.66421 17.2502 9 16.9144 9 16.5002V12.0002C9 11.586 8.66421 11.2502 8.25 11.2502H6.75Z" fill="currentColor"/>
    <path d="M0.75 12.7502C0.335786 12.7502 0 13.086 0 13.5002V16.5002C0 16.9144 0.335786 17.2502 0.75 17.2502H2.25C2.66421 17.2502 3 16.9144 3 16.5002V13.5002C3 13.086 2.66421 12.7502 2.25 12.7502H0.75Z" fill="currentColor"/>
  </g>
</svg>
